<svg width="178.000000" height="35.000000" viewBox="0 0 178 35" fill="none" xmlns="http://www.w3.org/2000/svg" xmlns:xlink="http://www.w3.org/1999/xlink">
	<desc>
			Created with Pixso.
	</desc>
	<defs/>
	<line id="Line" x1="111.875000" y1="16.500000" x2="177.875000" y2="16.500000" stroke="#0063A8" stroke-opacity="1.000000" stroke-width="1.000000"/>
	<line id="Line" x1="-0.875000" y1="16.500000" x2="65.125000" y2="16.500000" stroke="#0063A8" stroke-opacity="1.000000" stroke-width="1.000000"/>
	<circle id="Ellipse" cx="88.000000" cy="17.000000" r="16.000000" stroke="#0063A8" stroke-opacity="1.000000" stroke-width="2.763955" stroke-dasharray="0.979166 8.39285"/>
	<mask id="mask_4492_1166" fill="white">
		<path id="Union" d="M87.3889 5.81229L80.4832 18.9671C80.1335 19.633 80.6165 20.4319 81.3687 20.4319L85.0515 20.4319L84.8716 26.9451C84.813 29.0632 87.6567 29.8061 88.6416 27.9299L95.5474 14.7751C95.897 14.1093 95.4141 13.3103 94.6619 13.3103L90.979 13.3103L91.1589 6.79715C91.2175 4.67899 88.3738 3.93613 87.3889 5.81229Z" clip-rule="evenodd" fill="" fill-opacity="1.000000" fill-rule="evenodd"/>
	</mask>
	<path id="Union" d="M87.3889 5.81229L80.4832 18.9671C80.1335 19.633 80.6165 20.4319 81.3687 20.4319L85.0515 20.4319L84.8716 26.9451C84.813 29.0632 87.6567 29.8061 88.6416 27.9299L95.5474 14.7751C95.897 14.1093 95.4141 13.3103 94.6619 13.3103L90.979 13.3103L91.1589 6.79715C91.2175 4.67899 88.3738 3.93613 87.3889 5.81229Z" clip-rule="evenodd" fill="#FFDF4E" fill-opacity="1.000000" fill-rule="evenodd" mask="url(#mask_4492_1166)"/>
	<path id="Union" d="M91.0173 11.9225L91.1589 6.79715C91.2175 4.67899 88.3738 3.93613 87.3889 5.81229L80.4832 18.9671C80.1335 19.633 80.6165 20.4319 81.3687 20.4319L85.0515 20.4319L85.0132 21.8198L84.8716 26.9451C84.813 29.0632 87.6567 29.8061 88.6416 27.9299L95.5474 14.7751C95.897 14.1093 95.4141 13.3103 94.6619 13.3103L90.979 13.3103L91.0173 11.9225ZM82.0102 19.0441L88.6177 6.45737Q88.7239 6.25519 88.8888 6.17761Q88.902 6.17142 88.9155 6.16602Q88.9499 6.15233 88.9854 6.14321Q89.139 6.10378 89.3145 6.14963Q89.4902 6.19554 89.6048 6.30525Q89.6312 6.33044 89.6543 6.35901Q89.6639 6.3709 89.6728 6.38336Q89.778 6.53145 89.7717 6.75882L89.5522 14.6982L94.0203 14.6982L87.4126 27.2849Q87.3068 27.4867 87.1423 27.5643Q87.1288 27.5707 87.115 27.5762Q87.0806 27.5899 87.045 27.599Q86.8915 27.6384 86.7161 27.5926Q86.5404 27.5467 86.4258 27.437Q86.3994 27.4118 86.3762 27.3832Q86.3666 27.3713 86.3577 27.3588Q86.2525 27.2107 86.2588 26.9834L86.4783 19.0441L82.0102 19.0441Z" clip-rule="evenodd" fill="#0063A8" fill-opacity="1.000000" fill-rule="evenodd"/>
</svg>
