<svg width="596.000000" height="248.000000" viewBox="0 0 596 248" fill="none" xmlns="http://www.w3.org/2000/svg" xmlns:xlink="http://www.w3.org/1999/xlink">
	<desc>
			Created with Pixso.
	</desc>
	<defs>
		<filter id="filter_4492_2170_dd" x="0.000000" y="0.000000" width="596.000000" height="248.000000" filterUnits="userSpaceOnUse" color-interpolation-filters="sRGB">
			<feFlood flood-opacity="0" result="BackgroundImageFix"/>
			<feColorMatrix in="SourceAlpha" type="matrix" values="0 0 0 0 0 0 0 0 0 0 0 0 0 0 0 0 0 0 127 0" result="hardAlpha"/>
			<feOffset dx="0" dy="4"/>
			<feGaussianBlur stdDeviation="1.33333"/>
			<feComposite in2="hardAlpha" operator="out" k2="-1" k3="1"/>
			<feColorMatrix type="matrix" values="0 0 0 0 0 0 0 0 0 0 0 0 0 0 0 0 0 0 0.25 0"/>
			<feBlend mode="normal" in2="BackgroundImageFix" result="effect_dropShadow_1"/>
			<feBlend mode="normal" in="SourceGraphic" in2="effect_dropShadow_1" result="shape"/>
		</filter>
	</defs>
	<g filter="url(#filter_4492_2170_dd)">
		<path id="Vector" d="M4 0L592 0L592 224C592 232.836 584.837 240 576 240L20 240C11.1633 240 4 232.836 4 224L4 0Z" fill="#FFFFFF" fill-opacity="1.000000" fill-rule="nonzero"/>
	</g>
	<path id="Vector" d="M592 1L592 0L4 0L4 224C4 232.836 11.1633 240 20 240L576 240C584.837 240 592 232.836 592 224L592 1ZM591 1L591 224Q591 227.106 589.902 229.758Q588.803 232.41 586.607 234.606Q584.41 236.803 581.759 237.901Q579.107 239 576 239L20 239Q16.8933 239 14.2417 237.902Q11.5901 236.803 9.39331 234.606Q7.19678 232.41 6.09839 229.759Q5 227.107 5 224L5 1L591 1Z" fill="#DEDEDE" fill-opacity="1.000000" fill-rule="evenodd"/>
</svg>
